<?xml version="1.0" encoding="UTF-8" standalone="no"?>
<!-- Created with Inkscape (http://www.inkscape.org/) -->

<svg
   width="210mm"
   height="297mm"
   viewBox="0 0 210 297"
   version="1.1"
   id="svg547"
   inkscape:version="1.2.2 (b0a8486541, 2022-12-01)"
   sodipodi:docname="font.svg"
   xmlns:inkscape="http://www.inkscape.org/namespaces/inkscape"
   xmlns:sodipodi="http://sodipodi.sourceforge.net/DTD/sodipodi-0.dtd"
   xmlns="http://www.w3.org/2000/svg"
   xmlns:svg="http://www.w3.org/2000/svg">
  <sodipodi:namedview
     id="namedview549"
     pagecolor="#ffffff"
     bordercolor="#000000"
     borderopacity="0.25"
     inkscape:showpageshadow="2"
     inkscape:pageopacity="0.0"
     inkscape:pagecheckerboard="0"
     inkscape:deskcolor="#d1d1d1"
     inkscape:document-units="mm"
     showgrid="false"
     inkscape:zoom="0.69931958"
     inkscape:cx="397.52926"
     inkscape:cy="562.6898"
     inkscape:window-width="1854"
     inkscape:window-height="1011"
     inkscape:window-x="0"
     inkscape:window-y="0"
     inkscape:window-maximized="1"
     inkscape:current-layer="layer1" />
  <defs
     id="defs544" />
  <g
     inkscape:label="Layer 1"
     inkscape:groupmode="layer"
     id="layer1">
    <g
       aria-label="A"
       id="text553"
       style="font-size:3.175px;font-family:'Courier New';-inkscape-font-specification:'Courier New';stroke-width:0.264583">
      <path
         d="m 62.353799,67.207556 h -0.855761 l -0.175183,0.47594 h 0.249597 q 0.04651,0 0.06666,0.0186 0.02015,0.01705 0.02015,0.04651 0,0.02791 -0.02015,0.04651 -0.02015,0.0186 -0.06666,0.0186 H 61.08566 q -0.04651,0 -0.06666,-0.0186 -0.02015,-0.0186 -0.02015,-0.04651 0,-0.02945 0.02015,-0.04651 0.02015,-0.0186 0.06666,-0.0186 h 0.100769 l 0.575159,-1.553393 h -0.384473 q -0.04651,0 -0.06666,-0.01705 -0.02015,-0.0186 -0.02015,-0.04806 0,-0.02945 0.02015,-0.04651 0.02015,-0.0186 0.06666,-0.0186 h 0.655774 l 0.63562,1.683618 h 0.100769 q 0.04651,0 0.06666,0.0186 0.02015,0.01705 0.02015,0.04651 0,0.02791 -0.02015,0.04651 -0.02015,0.0186 -0.06666,0.0186 h -0.485242 q -0.04806,0 -0.06821,-0.0186 -0.02015,-0.0186 -0.02015,-0.04651 0,-0.02945 0.02015,-0.04651 0.02015,-0.0186 0.06821,-0.0186 h 0.248047 z m -0.04961,-0.130224 -0.359668,-0.947229 h -0.04806 l -0.348816,0.947229 z"
         id="path655" />
    </g>
    <g
       aria-label="B"
       id="text557"
       style="font-size:3.175px;font-family:'Courier New';-inkscape-font-specification:'Courier New';stroke-width:0.264583">
      <path
         d="m 66.267145,92.778337 v -1.553393 h -0.175183 q -0.04651,0 -0.06666,-0.01705 -0.02015,-0.0186 -0.02015,-0.04806 0,-0.02945 0.02015,-0.04651 0.02015,-0.0186 0.06666,-0.0186 h 0.818554 q 0.243396,0 0.395325,0.141077 0.153479,0.139526 0.153479,0.328662 0,0.238745 -0.255798,0.386023 0.203088,0.07286 0.297656,0.193786 0.09457,0.120923 0.09457,0.266651 0,0.130224 -0.06201,0.238745 -0.06201,0.10697 -0.190686,0.182934 -0.127124,0.07596 -0.277502,0.07596 h -0.973584 q -0.04651,0 -0.06666,-0.0186 -0.02015,-0.0186 -0.02015,-0.04651 0,-0.02946 0.02015,-0.04651 0.02015,-0.0186 0.06666,-0.0186 z m 0.130224,-0.877466 h 0.460437 q 0.147278,0 0.269751,-0.05426 0.09457,-0.04341 0.147278,-0.125574 0.05271,-0.08216 0.05271,-0.167431 0,-0.122473 -0.114722,-0.224793 -0.114721,-0.103869 -0.299206,-0.103869 h -0.516248 z m 0,0.877466 h 0.658875 q 0.125574,0 0.218591,-0.05581 0.09302,-0.05581 0.141077,-0.137977 0.04806,-0.08216 0.04806,-0.170532 0,-0.09922 -0.06976,-0.192236 -0.06821,-0.09302 -0.190686,-0.141077 -0.122473,-0.04806 -0.337964,-0.04806 h -0.468189 z"
         id="path658" />
    </g>
    <g
       aria-label="C"
       id="text561"
       style="font-size:3.175px;font-family:'Courier New';-inkscape-font-specification:'Courier New';stroke-width:0.264583">
      <path
         d="m 68.470198,77.770859 v -0.09147 q 0,-0.04651 0.01705,-0.06666 0.0186,-0.02015 0.04806,-0.02015 0.02946,0 0.04651,0.02015 0.0186,0.02015 0.0186,0.06666 v 0.361218 q 0,0.04806 -0.0186,0.06821 -0.01705,0.02015 -0.04651,0.02015 -0.02635,0 -0.04496,-0.0186 -0.01705,-0.0186 -0.02015,-0.06046 -0.0078,-0.130225 -0.141077,-0.230994 -0.179834,-0.137976 -0.409277,-0.137976 -0.150378,0 -0.283704,0.06666 -0.09922,0.04806 -0.158129,0.117823 -0.10232,0.120923 -0.162781,0.2682 -0.04341,0.108521 -0.04341,0.244947 v 0.227893 q 0,0.291455 0.210839,0.506945 0.21084,0.213941 0.489893,0.213941 0.167432,0 0.299207,-0.07286 0.133325,-0.07286 0.257348,-0.220141 0.02635,-0.03256 0.05891,-0.03256 0.02791,0 0.04496,0.01705 0.01705,0.01705 0.01705,0.04341 0,0.03566 -0.06666,0.10852 -0.127124,0.142627 -0.286804,0.215491 -0.15813,0.07131 -0.32091,0.07131 -0.141077,0 -0.286805,-0.05426 -0.111621,-0.04186 -0.184484,-0.09767 -0.07286,-0.05581 -0.179834,-0.187586 -0.10542,-0.133325 -0.144178,-0.244946 -0.03876,-0.113171 -0.03876,-0.248047 v -0.2651 q 0,-0.192236 0.102319,-0.392224 0.10387,-0.201538 0.282154,-0.308508 0.179834,-0.108521 0.389123,-0.108521 0.322461,0 0.555005,0.220142 z"
         id="path661" />
    </g>
    <g
       aria-label="D"
       id="text565"
       style="font-size:3.175px;font-family:'Courier New';-inkscape-font-specification:'Courier New';stroke-width:0.264583">
      <path
         d="m 100.09261,79.32052 v -1.553394 h -0.110075 q -0.04651,0 -0.06666,-0.01705 -0.02015,-0.0186 -0.02015,-0.04806 0,-0.02945 0.02015,-0.04651 0.02015,-0.0186 0.06666,-0.0186 h 0.700735 q 0.16433,0 0.2992,0.06821 0.13643,0.06821 0.20774,0.155029 0.12248,0.147278 0.18604,0.311609 0.045,0.119373 0.045,0.282153 v 0.179834 q 0,0.199988 -0.0884,0.387573 -0.0884,0.187586 -0.29456,0.327112 -0.15347,0.10232 -0.35501,0.10232 h -0.700735 q -0.04651,0 -0.06666,-0.0186 -0.02015,-0.0186 -0.02015,-0.04651 0,-0.02945 0.02015,-0.04651 0.02015,-0.0186 0.06666,-0.0186 z m 0.13022,0 h 0.47284 q 0.16433,0 0.30696,-0.10697 0.14417,-0.10697 0.21549,-0.255799 0.0729,-0.150378 0.0729,-0.296105 v -0.235645 q 0,-0.120923 -0.0388,-0.215491 -0.0558,-0.137976 -0.15813,-0.261999 -0.0558,-0.06821 -0.16433,-0.124024 -0.10852,-0.05736 -0.23409,-0.05736 h -0.47284 z"
         id="path664" />
    </g>
    <g
       aria-label="E"
       id="text569"
       style="font-size:3.175px;font-family:'Courier New';-inkscape-font-specification:'Courier New';stroke-width:0.264583">
      <path
         d="m 86.703874,71.112892 v 0.745691 h 1.001489 V 71.47411 q 0,-0.04651 0.01705,-0.06666 0.0186,-0.02015 0.04806,-0.02015 0.02945,0 0.04651,0.02015 0.0186,0.02015 0.0186,0.06666 v 0.514698 h -1.437122 q -0.04651,0 -0.06666,-0.0186 -0.02015,-0.0186 -0.02015,-0.04651 0,-0.02945 0.02015,-0.04651 0.02015,-0.0186 0.06666,-0.0186 H 86.57365 V 70.30519 h -0.175184 q -0.04651,0 -0.06666,-0.01705 -0.02015,-0.0186 -0.02015,-0.04806 0,-0.02945 0.02015,-0.04651 0.02015,-0.0186 0.06666,-0.0186 h 1.368909 V 70.623 q 0,0.04651 -0.0186,0.06666 -0.01705,0.02015 -0.04651,0.02015 -0.02946,0 -0.04806,-0.02015 -0.01705,-0.02015 -0.01705,-0.06666 v -0.31781 h -0.933277 v 0.677478 h 0.466638 V 70.83539 q 0,-0.04651 0.0186,-0.06666 0.0186,-0.02015 0.04806,-0.02015 0.02791,0 0.04651,0.02015 0.0186,0.02015 0.0186,0.06666 v 0.42478 q 0,0.04651 -0.0186,0.06666 -0.0186,0.02015 -0.04651,0.02015 -0.02946,0 -0.04806,-0.02015 -0.0186,-0.02015 -0.0186,-0.06666 v -0.147278 z"
         id="path667" />
    </g>
    <g
       aria-label="F"
       id="text573"
       style="font-size:3.175px;font-family:'Courier New';-inkscape-font-specification:'Courier New';stroke-width:0.264583">
      <path
         d="m 94.617282,89.548286 v 0.745691 h 0.446484 q 0.04651,0 0.06666,0.0186 0.02015,0.01705 0.02015,0.04651 0,0.02791 -0.02015,0.04651 -0.02015,0.0186 -0.06666,0.0186 h -0.751892 q -0.04651,0 -0.06666,-0.0186 -0.02015,-0.0186 -0.02015,-0.04651 0,-0.02946 0.02015,-0.04651 0.02015,-0.0186 0.06666,-0.0186 h 0.175183 v -1.553393 h -0.175183 q -0.04651,0 -0.06666,-0.01705 -0.02015,-0.0186 -0.02015,-0.04806 0,-0.02946 0.02325,-0.04961 0.01705,-0.0155 0.06356,-0.0155 h 1.434021 v 0.448035 q 0,0.04651 -0.0186,0.06666 -0.0186,0.02015 -0.04651,0.02015 -0.02946,0 -0.04806,-0.02015 -0.0186,-0.02015 -0.0186,-0.06666 v -0.31781 h -0.996838 v 0.677478 h 0.466638 v -0.147278 q 0,-0.04651 0.0186,-0.06666 0.0186,-0.02015 0.04806,-0.02015 0.02791,0 0.04651,0.02015 0.0186,0.02015 0.0186,0.06666 v 0.42478 q 0,0.04651 -0.0186,0.06666 -0.0186,0.02015 -0.04651,0.02015 -0.02946,0 -0.04806,-0.02015 -0.0186,-0.02015 -0.0186,-0.06666 v -0.147278 z"
         id="path670" />
    </g>
    <g
       aria-label="G"
       id="text577"
       style="font-size:3.175px;font-family:'Courier New';-inkscape-font-specification:'Courier New';stroke-width:0.264583">
      <path
         d="m 114.91674,113.24417 v 0.5581 q -0.14883,0.0822 -0.29765,0.12402 -0.14728,0.0419 -0.29456,0.0419 -0.20929,0 -0.36897,-0.062 -0.15813,-0.062 -0.2682,-0.17363 -0.11007,-0.11162 -0.17208,-0.2496 -0.0605,-0.13798 -0.0605,-0.35037 v -0.23874 q 0,-0.21394 0.10542,-0.41548 0.10697,-0.20309 0.29145,-0.31006 0.18449,-0.10697 0.40153,-0.10697 0.31471,0 0.53175,0.17208 0,-0.076 0.005,-0.0915 0.006,-0.0155 0.0233,-0.0264 0.0171,-0.0124 0.0388,-0.0124 0.0279,0 0.0465,0.0202 0.0186,0.0202 0.0186,0.0667 v 0.29455 q 0,0.0481 -0.0186,0.0682 -0.0186,0.0186 -0.0465,0.0186 -0.0264,0 -0.045,-0.0171 -0.017,-0.0186 -0.0186,-0.0636 -0.009,-0.13177 -0.17208,-0.21549 -0.16124,-0.0837 -0.35192,-0.0837 -0.17984,0 -0.32556,0.0791 -0.14418,0.0775 -0.26975,0.29766 -0.0837,0.14417 -0.0837,0.32711 v 0.23719 q 0,0.32402 0.19844,0.5147 0.19844,0.19069 0.54725,0.19069 0.11782,0 0.21859,-0.0248 0.10077,-0.0248 0.23565,-0.0868 v -0.48214 h -0.44804 q -0.0465,0 -0.0667,-0.0171 -0.0202,-0.0186 -0.0202,-0.0481 0,-0.0294 0.0202,-0.0481 0.0202,-0.0186 0.0667,-0.0186 l 0.62632,0.002 q 0.0465,0 0.0667,0.0186 0.0202,0.0171 0.0202,0.0465 0,0.0202 -0.0124,0.0372 -0.0124,0.017 -0.0279,0.0232 -0.0155,0.005 -0.093,0.005 z"
         id="path673" />
    </g>
    <g
       aria-label="H"
       id="text581"
       style="font-size:3.175px;font-family:'Courier New';-inkscape-font-specification:'Courier New';stroke-width:0.264583">
      <path
         d="m 145.87232,168.95907 h -0.86351 v 0.74724 h 0.17518 q 0.0465,0 0.0667,0.0186 0.0202,0.0171 0.0202,0.0465 0,0.0279 -0.0202,0.0465 -0.0202,0.0186 -0.0667,0.0186 h -0.45269 q -0.0465,0 -0.0667,-0.0186 -0.0202,-0.0186 -0.0202,-0.0465 0,-0.0295 0.0202,-0.0465 0.0202,-0.0186 0.0667,-0.0186 h 0.14728 v -1.5534 h -0.0806 q -0.0481,0 -0.0682,-0.017 -0.0202,-0.0186 -0.0202,-0.0481 0,-0.0294 0.0202,-0.0465 0.0202,-0.0186 0.0682,-0.0186 h 0.38602 q 0.0465,0 0.0667,0.0186 0.0202,0.0171 0.0202,0.0465 0,0.0295 -0.0202,0.0481 -0.0202,0.017 -0.0667,0.017 h -0.17518 v 0.67593 h 0.86351 v -0.67593 h -0.17363 q -0.0465,0 -0.0667,-0.017 -0.0202,-0.0186 -0.0202,-0.0481 0,-0.0294 0.0186,-0.0465 0.0202,-0.0186 0.0682,-0.0186 h 0.38602 q 0.0481,0 0.0682,0.0186 0.0202,0.0171 0.0202,0.0465 0,0.0295 -0.0202,0.0481 -0.0202,0.017 -0.0682,0.017 h -0.0806 v 1.5534 h 0.14727 q 0.0465,0 0.0667,0.0186 0.0202,0.0171 0.0202,0.0465 0,0.0279 -0.0202,0.0465 -0.0202,0.0186 -0.0667,0.0186 h -0.45268 q -0.0465,0 -0.0667,-0.0186 -0.0202,-0.0186 -0.0202,-0.0465 0,-0.0295 0.0186,-0.0465 0.0202,-0.0186 0.0682,-0.0186 h 0.17363 z"
         id="path676" />
    </g>
    <g
       aria-label="I"
       id="text585"
       style="font-size:3.175px;font-family:'Courier New';-inkscape-font-specification:'Courier New';stroke-width:0.264583">
      <path
         d="m 149.92792,173.15267 v 1.55339 h 0.44648 q 0.0465,0 0.0667,0.0186 0.0202,0.017 0.0202,0.0465 0,0.0279 -0.0202,0.0465 -0.0202,0.0186 -0.0667,0.0186 h -1.02319 q -0.0465,0 -0.0667,-0.0186 -0.0202,-0.0186 -0.0202,-0.0465 0,-0.0295 0.0202,-0.0465 0.0202,-0.0186 0.0667,-0.0186 h 0.44649 v -1.55339 h -0.44649 q -0.0465,0 -0.0667,-0.0171 -0.0202,-0.0186 -0.0202,-0.0481 0,-0.0295 0.0202,-0.0465 0.0202,-0.0186 0.0667,-0.0186 h 1.02319 q 0.0465,0 0.0667,0.0186 0.0202,0.017 0.0202,0.0465 0,0.0294 -0.0202,0.0481 -0.0202,0.0171 -0.0667,0.0171 z"
         id="path679" />
    </g>
    <g
       aria-label="J"
       id="text589"
       style="font-size:3.175px;font-family:'Courier New';-inkscape-font-specification:'Courier New';stroke-width:0.264583">
      <path
         d="m 147.03863,204.02759 v 1.15032 q 0,0.2372 -0.17673,0.41083 -0.17673,0.17363 -0.42168,0.17363 -0.14728,0 -0.28991,-0.0667 -0.14107,-0.0682 -0.3085,-0.22169 v -0.48059 q 0,-0.0465 0.0186,-0.0667 0.0186,-0.0202 0.0465,-0.0202 0.0294,0 0.0481,0.0202 0.0186,0.0202 0.0186,0.0667 l -0.002,0.41858 q 0.11937,0.11007 0.23565,0.16588 0.11782,0.0543 0.23254,0.0543 0.12712,0 0.24029,-0.062 0.0853,-0.0465 0.15503,-0.15658 0.0713,-0.11007 0.0713,-0.23565 v -1.15032 h -0.51005 q -0.0481,0 -0.0682,-0.0171 -0.0202,-0.0186 -0.0202,-0.0481 0,-0.0294 0.0202,-0.0465 0.0202,-0.0186 0.0682,-0.0186 h 0.95188 q 0.0465,0 0.0667,0.0186 0.0202,0.0171 0.0202,0.0465 0,0.0295 -0.0202,0.0481 -0.0202,0.0171 -0.0667,0.0171 z"
         id="path682" />
    </g>
    <g
       aria-label="K"
       id="text593"
       style="font-size:3.175px;font-family:'Courier New';-inkscape-font-specification:'Courier New';stroke-width:0.264583">
      <path
         d="m 92.82986,168.61957 v 0.57981 h 0.240295 q 0.04806,0 0.06821,0.0186 0.02015,0.0171 0.02015,0.0465 0,0.0279 -0.02015,0.0465 -0.02015,0.0186 -0.06821,0.0186 h -0.545703 q -0.04651,0 -0.06666,-0.0186 -0.02015,-0.0186 -0.02015,-0.0465 0,-0.0294 0.02015,-0.0465 0.02015,-0.0186 0.06666,-0.0186 h 0.175183 v -1.55339 h -0.175183 q -0.04651,0 -0.06666,-0.0171 -0.02015,-0.0186 -0.02015,-0.0481 0,-0.0294 0.02015,-0.0465 0.02015,-0.0186 0.06666,-0.0186 h 0.545703 q 0.04806,0 0.06821,0.0186 0.02015,0.0171 0.02015,0.0465 0,0.0295 -0.02015,0.0481 -0.02015,0.0171 -0.06821,0.0171 H 92.82986 v 0.8015 l 0.89917,-0.8015 h -0.142627 q -0.04806,0 -0.06821,-0.0171 -0.02015,-0.0186 -0.02015,-0.0481 0,-0.0294 0.02015,-0.0465 0.02015,-0.0186 0.06821,-0.0186 h 0.382922 q 0.04651,0 0.06666,0.0186 0.02015,0.0171 0.02015,0.0465 0,0.0295 -0.02015,0.0481 -0.02015,0.0171 -0.06666,0.0171 h -0.05271 l -0.716235,0.64027 q 0.15968,0.0651 0.2651,0.16278 0.10542,0.0977 0.203088,0.2775 0.05581,0.10077 0.204639,0.47284 h 0.162781 q 0.04806,0 0.06821,0.0186 0.02015,0.0171 0.02015,0.0465 0,0.0279 -0.02015,0.0465 -0.02015,0.0186 -0.06821,0.0186 H 93.78484 q -0.204638,-0.55966 -0.344165,-0.71934 -0.139526,-0.16123 -0.348816,-0.22634 z"
         id="path685" />
    </g>
    <g
       aria-label="L"
       id="text597"
       style="font-size:3.175px;font-family:'Courier New';-inkscape-font-specification:'Courier New';stroke-width:0.264583">
      <path
         d="m 68.057532,148.21595 v 1.55339 h 0.865063 v -0.5178 q 0,-0.0465 0.0186,-0.0667 0.0186,-0.0202 0.04806,-0.0202 0.0279,0 0.04651,0.0202 0.0186,0.0186 0.0186,0.0667 v 0.64803 h -1.438672 q -0.04651,0 -0.06666,-0.0186 -0.02015,-0.0186 -0.02015,-0.0465 0,-0.0294 0.02015,-0.0465 0.02015,-0.0186 0.06666,-0.0186 h 0.310059 v -1.55339 h -0.310059 q -0.04651,0 -0.06666,-0.017 -0.02015,-0.0186 -0.02015,-0.0481 0,-0.0295 0.02015,-0.0465 0.02015,-0.0186 0.06666,-0.0186 h 0.751892 q 0.04651,0 0.06666,0.0186 0.02015,0.017 0.02015,0.0465 0,0.0295 -0.02015,0.0481 -0.02015,0.017 -0.06666,0.017 z"
         id="path688" />
    </g>
    <g
       aria-label="M"
       id="text601"
       style="font-size:3.175px;font-family:'Courier New';-inkscape-font-specification:'Courier New';stroke-width:0.264583">
      <path
         d="m 111.7309,144.42809 h -0.14882 l -0.50075,-1.13946 h -0.0248 v 1.55339 h 0.24029 q 0.0465,0 0.0667,0.0186 0.0202,0.0171 0.0202,0.0465 0,0.0279 -0.0202,0.0465 -0.0202,0.0186 -0.0667,0.0186 h -0.48059 q -0.0465,0 -0.0667,-0.0186 -0.0202,-0.0186 -0.0202,-0.0465 0,-0.0294 0.0202,-0.0465 0.0202,-0.0186 0.0667,-0.0186 h 0.11007 v -1.55339 h -0.0822 q -0.0465,0 -0.0667,-0.0171 -0.0201,-0.0186 -0.0201,-0.0481 0,-0.0294 0.0201,-0.0465 0.0202,-0.0186 0.0667,-0.0186 h 0.31936 l 0.49299,1.12241 0.48524,-1.12241 h 0.31936 q 0.0481,0 0.0682,0.0186 0.0202,0.0171 0.0202,0.0465 0,0.0295 -0.0202,0.0481 -0.0202,0.0171 -0.0682,0.0171 h -0.0806 v 1.55339 h 0.10852 q 0.0481,0 0.0682,0.0186 0.0202,0.0171 0.0202,0.0465 0,0.0279 -0.0202,0.0465 -0.0202,0.0186 -0.0682,0.0186 h -0.47904 q -0.0465,0 -0.0682,-0.0186 -0.0202,-0.0186 -0.0202,-0.0465 0,-0.0294 0.0202,-0.0465 0.0202,-0.0186 0.0682,-0.0186 h 0.24029 v -1.55339 h -0.0279 z"
         id="path691" />
    </g>
    <g
       aria-label="N"
       id="text605"
       style="font-size:3.175px;font-family:'Courier New';-inkscape-font-specification:'Courier New';stroke-width:0.264583">
      <path
         d="m 182.94741,114.80669 h -0.16743 l -0.95963,-1.62316 v 1.49293 h 0.24029 q 0.0481,0 0.0682,0.0186 0.0202,0.017 0.0202,0.0465 0,0.0279 -0.0202,0.0465 -0.0202,0.0186 -0.0682,0.0186 h -0.47904 q -0.0481,0 -0.0682,-0.0186 -0.0202,-0.0186 -0.0202,-0.0465 0,-0.0294 0.0202,-0.0465 0.0202,-0.0186 0.0682,-0.0186 h 0.10852 v -1.55339 h -0.17518 q -0.0465,0 -0.0667,-0.017 -0.0202,-0.0186 -0.0202,-0.0481 0,-0.0295 0.0202,-0.0465 0.0202,-0.0186 0.0667,-0.0186 h 0.34107 l 0.96118,1.62626 v -1.49603 h -0.2403 q -0.0465,0 -0.0667,-0.017 -0.0202,-0.0186 -0.0202,-0.0481 0,-0.0295 0.0186,-0.0465 0.0202,-0.0186 0.0682,-0.0186 h 0.48059 q 0.0465,0 0.0667,0.0186 0.0202,0.017 0.0202,0.0465 0,0.0295 -0.0202,0.0481 -0.0202,0.017 -0.0667,0.017 h -0.11007 z"
         id="path694" />
    </g>
    <g
       aria-label="O"
       id="text609"
       style="font-size:3.175px;font-family:'Courier New';-inkscape-font-specification:'Courier New';stroke-width:0.264583">
      <path
         d="m 151.08375,103.36696 q 0,0.26045 -0.10542,0.48369 -0.10542,0.2217 -0.29145,0.34572 -0.18449,0.12402 -0.39688,0.12402 -0.31471,0 -0.555,-0.26665 -0.23875,-0.2682 -0.23875,-0.68678 0,-0.42013 0.23875,-0.68678 0.24029,-0.26665 0.555,-0.26665 0.21239,0 0.39688,0.12403 0.18448,0.12402 0.2899,0.34571 0.10697,0.22169 0.10697,0.48369 z m -0.13177,0 q 0,-0.31781 -0.18449,-0.5705 -0.18448,-0.2527 -0.47749,-0.2527 -0.2744,0 -0.46974,0.24184 -0.19378,0.2403 -0.19378,0.58136 0,0.36277 0.20309,0.59377 0.20463,0.22944 0.46043,0.22944 0.29301,0 0.47749,-0.25115 0.18449,-0.2527 0.18449,-0.57206 z"
         id="path697" />
    </g>
    <g
       aria-label="P"
       id="text613"
       style="font-size:3.175px;font-family:'Courier New';-inkscape-font-specification:'Courier New';stroke-width:0.264583">
      <path
         d="m 120.53086,96.949883 v 0.613916 h 0.44648 q 0.0465,0 0.0667,0.0186 0.0202,0.01705 0.0202,0.04651 0,0.02791 -0.0202,0.04651 -0.0202,0.0186 -0.0667,0.0186 h -0.75189 q -0.0465,0 -0.0667,-0.0186 -0.0202,-0.0186 -0.0202,-0.04651 0,-0.02946 0.0202,-0.04651 0.0202,-0.0186 0.0667,-0.0186 h 0.17518 v -1.553394 h -0.17518 q -0.0465,0 -0.0667,-0.01705 -0.0202,-0.0186 -0.0202,-0.04806 0,-0.02946 0.0202,-0.04651 0.0202,-0.0186 0.0667,-0.0186 h 0.75654 q 0.2682,0 0.43718,0.15813 0.17054,0.15813 0.17054,0.37052 0,0.125574 -0.0558,0.226343 -0.0543,0.100769 -0.13178,0.15813 -0.11627,0.08682 -0.24029,0.127124 -0.0899,0.02946 -0.22325,0.02946 z m 0,-0.130225 h 0.41547 q 0.14418,0 0.26976,-0.06356 0.12712,-0.06511 0.18448,-0.15813 0.0589,-0.09302 0.0589,-0.189136 0,-0.153479 -0.13177,-0.275952 -0.13178,-0.122473 -0.33332,-0.122473 h -0.46353 z"
         id="path700" />
    </g>
    <g
       aria-label="Q"
       id="text617"
       style="font-size:3.175px;font-family:'Courier New';-inkscape-font-specification:'Courier New';stroke-width:0.264583">
      <path
         d="m 112.53613,90.501958 -0.17364,0.130224 q 0.12868,-0.02635 0.21239,-0.02635 0.13643,0 0.2682,0.04961 0.093,0.03566 0.14418,0.03566 0.0899,0 0.19999,-0.07286 0.0434,-0.02791 0.062,-0.02791 0.0279,0 0.045,0.01705 0.0186,0.0186 0.0186,0.04806 0,0.02325 -0.0155,0.04031 -0.0326,0.03721 -0.14728,0.08682 -0.0868,0.03876 -0.17053,0.03876 -0.0651,0 -0.17983,-0.04186 -0.11473,-0.04186 -0.2217,-0.04186 -0.076,0 -0.18758,0.0186 -0.15658,0.02635 -0.25115,0.05271 -0.031,0.0078 -0.045,0.0078 -0.0264,0 -0.045,-0.0186 -0.0186,-0.0186 -0.0186,-0.04961 0,-0.03101 0.0357,-0.05581 l 0.2899,-0.20929 q -0.2589,-0.06356 -0.44493,-0.31936 -0.18449,-0.255798 -0.18449,-0.615466 0,-0.42013 0.23875,-0.68678 0.24029,-0.266651 0.555,-0.266651 0.31471,0 0.55346,0.266651 0.24029,0.26665 0.24029,0.68678 0,0.413928 -0.23564,0.682128 -0.23565,0.266651 -0.5426,0.271302 z m 0.64647,-0.95343 q 0,-0.317811 -0.18449,-0.570508 -0.18448,-0.252698 -0.47749,-0.252698 -0.2744,0 -0.46973,0.241846 -0.19379,0.240295 -0.19379,0.58136 0,0.362768 0.20309,0.593762 0.20464,0.229443 0.46043,0.229443 0.29301,0 0.47749,-0.251147 0.18449,-0.252698 0.18449,-0.572058 z"
         id="path703" />
    </g>
    <g
       aria-label="R"
       id="text621"
       style="font-size:3.175px;font-family:'Courier New';-inkscape-font-specification:'Courier New';stroke-width:0.264583">
      <path
         d="m 125.22106,78.932637 v 0.679028 h 0.2403 q 0.0481,0 0.0682,0.0186 0.0202,0.01705 0.0202,0.04651 0,0.02791 -0.0202,0.04651 -0.0202,0.0186 -0.0682,0.0186 h -0.5457 q -0.0465,0 -0.0667,-0.0186 -0.0202,-0.0186 -0.0202,-0.04651 0,-0.02946 0.0202,-0.04651 0.0202,-0.0186 0.0667,-0.0186 h 0.17518 v -1.553393 h -0.17518 q -0.0465,0 -0.0667,-0.01705 -0.0202,-0.0186 -0.0202,-0.04806 0,-0.02946 0.0202,-0.04651 0.0202,-0.0186 0.0667,-0.0186 h 0.78754 q 0.2434,0 0.40928,0.15503 0.16743,0.153479 0.16743,0.347265 0,0.139526 -0.10387,0.26355 -0.10232,0.122473 -0.34416,0.204639 0.13953,0.09612 0.23874,0.217041 0.0992,0.120922 0.31781,0.496093 h 0.0992 q 0.0465,0 0.0667,0.0186 0.0202,0.01705 0.0202,0.04651 0,0.02791 -0.0202,0.04651 -0.0202,0.0186 -0.0667,0.0186 h -0.17363 q -0.24185,-0.432532 -0.37517,-0.57981 -0.13178,-0.147277 -0.30386,-0.229443 z m 0,-0.130225 h 0.35502 q 0.17053,0 0.30851,-0.06201 0.13952,-0.06201 0.20154,-0.145728 0.0636,-0.08372 0.0636,-0.170532 0,-0.130225 -0.13178,-0.248047 -0.13022,-0.117822 -0.31781,-0.117822 h -0.47904 z"
         id="path706" />
    </g>
    <g
       aria-label="S"
       id="text625"
       style="font-size:3.175px;font-family:'Courier New';-inkscape-font-specification:'Courier New';stroke-width:0.264583">
      <path
         d="m 143.42163,76.768065 v -0.04341 q 0,-0.04651 0.0171,-0.06666 0.0186,-0.02015 0.0481,-0.02015 0.0295,0 0.0465,0.02015 0.0186,0.02015 0.0186,0.06666 v 0.331762 q 0,0.04651 -0.0186,0.06666 -0.0171,0.02015 -0.0465,0.02015 -0.0279,0 -0.0465,-0.0186 -0.0171,-0.0186 -0.0186,-0.06046 -0.008,-0.130225 -0.13487,-0.234094 -0.12558,-0.10387 -0.33022,-0.10387 -0.21549,0 -0.34261,0.111621 -0.12713,0.110071 -0.12713,0.260449 0,0.07752 0.0357,0.141077 0.0357,0.06356 0.0946,0.10387 0.0589,0.03876 0.13332,0.06356 0.0744,0.02325 0.23255,0.04961 0.2651,0.04341 0.36587,0.08837 0.13487,0.06046 0.20309,0.167431 0.0698,0.106971 0.0698,0.252698 0,0.223242 -0.17829,0.381372 -0.17828,0.15658 -0.48059,0.15658 -0.33951,0 -0.5426,-0.21239 v 0.07441 q 0,0.04651 -0.0186,0.06666 -0.0171,0.02015 -0.0465,0.02015 -0.0279,0 -0.0465,-0.02015 -0.0186,-0.02015 -0.0186,-0.06666 v -0.359668 q 0,-0.04806 0.0171,-0.06821 0.0186,-0.02015 0.0481,-0.02015 0.0279,0 0.045,0.0186 0.0186,0.0186 0.0202,0.06046 0.008,0.142627 0.15193,0.260449 0.14573,0.116272 0.39067,0.116272 0.24495,0 0.38603,-0.122473 0.14262,-0.122473 0.14262,-0.289905 0,-0.102319 -0.0543,-0.181384 -0.0543,-0.08062 -0.16123,-0.127124 -0.0744,-0.03256 -0.31006,-0.07286 -0.32401,-0.05426 -0.46663,-0.165881 -0.14263,-0.111621 -0.14263,-0.31781 0,-0.204639 0.16278,-0.351917 0.16433,-0.147278 0.43253,-0.147278 0.27285,0 0.46974,0.172083 z"
         id="path709" />
    </g>
    <g
       aria-label="T"
       id="text629"
       style="font-size:3.175px;font-family:'Courier New';-inkscape-font-specification:'Courier New';stroke-width:0.264583">
      <path
         d="m 136.35476,96.490729 v 1.553393 h 0.33796 q 0.0465,0 0.0667,0.0186 0.0202,0.01705 0.0202,0.04651 0,0.02791 -0.0202,0.04651 -0.0202,0.0186 -0.0667,0.0186 h -0.8077 q -0.0465,0 -0.0667,-0.0186 -0.0202,-0.0186 -0.0202,-0.04651 0,-0.02946 0.0202,-0.04651 0.0202,-0.0186 0.0667,-0.0186 h 0.33797 v -1.553393 h -0.5333 v 0.451135 q 0,0.04806 -0.0186,0.06821 -0.017,0.02015 -0.0465,0.02015 -0.0279,0 -0.0465,-0.02015 -0.0186,-0.02015 -0.0186,-0.06821 v -0.58136 h 1.45883 v 0.58136 q 0,0.04806 -0.0186,0.06821 -0.0171,0.02015 -0.0465,0.02015 -0.0294,0 -0.0481,-0.02015 -0.0171,-0.02015 -0.0171,-0.06821 v -0.451135 z"
         id="path712" />
    </g>
    <g
       aria-label="U"
       id="text633"
       style="font-size:3.175px;font-family:'Courier New';-inkscape-font-specification:'Courier New';stroke-width:0.264583">
      <path
         d="m 140.71292,119.19136 v 1.0883 q 0,0.27441 -0.18294,0.46044 -0.18293,0.18604 -0.44183,0.18604 -0.17364,0 -0.30851,-0.076 -0.13488,-0.076 -0.22944,-0.22944 -0.0946,-0.15503 -0.0946,-0.34107 v -1.0883 h -0.11007 q -0.0465,0 -0.0667,-0.017 -0.0202,-0.0186 -0.0202,-0.0481 0,-0.0295 0.0217,-0.0496 0.0186,-0.0155 0.0651,-0.0155 h 0.48059 q 0.0465,0 0.0667,0.0186 0.0202,0.017 0.0202,0.0465 0,0.0294 -0.0202,0.0481 -0.0202,0.017 -0.0667,0.017 h -0.2403 v 1.0883 q 0,0.2155 0.14728,0.36587 0.14728,0.15038 0.34882,0.15038 0.12867,0 0.23409,-0.0589 0.10697,-0.0589 0.18604,-0.18138 0.0806,-0.12248 0.0806,-0.27596 v -1.0883 h -0.24029 q -0.0465,0 -0.0667,-0.017 -0.0202,-0.0186 -0.0202,-0.0481 0,-0.0295 0.0202,-0.0465 0.0202,-0.0186 0.0667,-0.0186 h 0.48059 q 0.0465,0 0.0667,0.0186 0.0202,0.017 0.0202,0.0465 0,0.0294 -0.0202,0.0481 -0.0202,0.017 -0.0667,0.017 z"
         id="path715" />
    </g>
    <g
       aria-label="V"
       id="text637"
       style="font-size:3.175px;font-family:'Courier New';-inkscape-font-specification:'Courier New';stroke-width:0.264583">
      <path
         d="m 153.29898,134.39635 h -0.18138 l -0.65577,-1.68362 h -0.10077 q -0.0357,0 -0.0512,-0.006 -0.0155,-0.008 -0.0264,-0.0233 -0.009,-0.017 -0.009,-0.0357 0,-0.0186 0.009,-0.0341 0.0109,-0.017 0.0264,-0.0232 0.0155,-0.008 0.0512,-0.008 h 0.48524 q 0.0372,0 0.0512,0.008 0.0155,0.006 0.0248,0.0232 0.0109,0.0155 0.0109,0.0341 0,0.0186 -0.0109,0.0357 -0.0109,0.0155 -0.0264,0.0233 -0.014,0.006 -0.0496,0.006 h -0.2496 l 0.60462,1.55339 h 0.009 l 0.59686,-1.55339 h -0.24805 q -0.0372,0 -0.0527,-0.006 -0.0155,-0.008 -0.0264,-0.0233 -0.009,-0.017 -0.009,-0.0357 0,-0.0186 0.0109,-0.0341 0.0109,-0.017 0.0248,-0.0232 0.0155,-0.008 0.0527,-0.008 h 0.48369 q 0.0372,0 0.0527,0.008 0.0155,0.006 0.0248,0.0232 0.0109,0.0155 0.0109,0.0341 0,0.0186 -0.0109,0.0357 -0.0109,0.0155 -0.0264,0.0233 -0.0139,0.006 -0.0512,0.006 h -0.0992 z"
         id="path718" />
    </g>
    <g
       aria-label="W"
       id="text641"
       style="font-size:3.175px;font-family:'Courier New';-inkscape-font-specification:'Courier New';stroke-width:0.264583">
      <path
         d="m 169.63279,138.52264 h -0.20463 l -0.36897,-1.28829 -0.36122,1.28829 h -0.20464 l -0.19224,-1.68361 h -0.0481 q -0.0465,0 -0.0667,-0.0171 -0.0202,-0.0186 -0.0202,-0.0481 0,-0.0294 0.0202,-0.0465 0.0202,-0.0186 0.0667,-0.0186 h 0.48369 q 0.0481,0 0.0682,0.0186 0.0202,0.0171 0.0202,0.0465 0,0.0295 -0.0202,0.0481 -0.0202,0.0171 -0.0682,0.0171 h -0.30385 l 0.17208,1.53479 0.35192,-1.26349 h 0.19998 l 0.36122,1.26349 0.16898,-1.53479 h -0.3054 q -0.0465,0 -0.0667,-0.0171 -0.0202,-0.0186 -0.0202,-0.0481 0,-0.0294 0.0202,-0.0465 0.0202,-0.0186 0.0667,-0.0186 h 0.48059 q 0.0481,0 0.0682,0.0186 0.0202,0.0171 0.0202,0.0465 0,0.0295 -0.0202,0.0481 -0.0202,0.0171 -0.0682,0.0171 h -0.0481 z"
         id="path721" />
    </g>
    <g
       aria-label="X"
       id="text645"
       style="font-size:3.175px;font-family:'Courier New';-inkscape-font-specification:'Courier New';stroke-width:0.264583">
      <path
         d="m 178.17422,138.2517 0.61857,0.7984 h 0.0496 q 0.0465,0 0.0667,0.0186 0.0202,0.017 0.0202,0.0465 0,0.0279 -0.0202,0.0465 -0.0202,0.0186 -0.0667,0.0186 h -0.41858 q -0.0465,0 -0.0667,-0.0186 -0.0202,-0.0186 -0.0202,-0.0465 0,-0.0295 0.0202,-0.0465 0.0202,-0.0186 0.0667,-0.0186 h 0.20774 l -0.53795,-0.69143 -0.53175,0.69143 h 0.20774 q 0.0465,0 0.0667,0.0186 0.0202,0.017 0.0202,0.0465 0,0.0279 -0.0202,0.0465 -0.0202,0.0186 -0.0667,0.0186 h -0.41548 q -0.0465,0 -0.0667,-0.0186 -0.0202,-0.0186 -0.0202,-0.0465 0,-0.0217 0.0124,-0.0388 0.0124,-0.017 0.0279,-0.0217 0.0155,-0.005 0.0946,-0.005 l 0.61081,-0.7984 -0.58291,-0.75499 h -0.0481 q -0.0465,0 -0.0667,-0.0171 -0.0202,-0.0186 -0.0202,-0.0481 0,-0.0295 0.0202,-0.0465 0.0202,-0.0186 0.0667,-0.0186 h 0.35501 q 0.0481,0 0.0682,0.0186 0.0202,0.0171 0.0202,0.0465 0,0.0294 -0.0202,0.0481 -0.0202,0.0171 -0.0682,0.0171 h -0.14573 l 0.5023,0.64957 0.49919,-0.64957 h -0.14572 q -0.0481,0 -0.0682,-0.0171 -0.0202,-0.0186 -0.0202,-0.0481 0,-0.0295 0.0202,-0.0465 0.0202,-0.0186 0.0682,-0.0186 h 0.35656 q 0.0465,0 0.0667,0.0186 0.0202,0.0171 0.0202,0.0465 0,0.0294 -0.0202,0.0481 -0.0202,0.0171 -0.0667,0.0171 h -0.0496 z"
         id="path724" />
    </g>
    <g
       aria-label="Y"
       id="text649"
       style="font-size:3.175px;font-family:'Courier New';-inkscape-font-specification:'Courier New';stroke-width:0.264583">
      <path
         d="m 186.75306,150.44957 v 0.68833 h 0.33796 q 0.0465,0 0.0667,0.0186 0.0202,0.0171 0.0202,0.0465 0,0.0279 -0.0202,0.0465 -0.0202,0.0186 -0.0667,0.0186 h -0.8077 q -0.0465,0 -0.0667,-0.0186 -0.0202,-0.0186 -0.0202,-0.0465 0,-0.0295 0.0186,-0.0465 0.0202,-0.0186 0.0682,-0.0186 h 0.33796 v -0.68833 l -0.57206,-0.86506 h -0.0775 q -0.0465,0 -0.0667,-0.017 -0.0202,-0.0186 -0.0202,-0.0481 0,-0.0295 0.0202,-0.0465 0.0202,-0.0186 0.0667,-0.0186 h 0.35812 q 0.0465,0 0.0667,0.0186 0.0202,0.017 0.0202,0.0465 0,0.0294 -0.0202,0.0481 -0.0202,0.017 -0.0667,0.017 h -0.12868 l 0.4868,0.73329 0.47594,-0.73329 h -0.12713 q -0.0481,0 -0.0682,-0.017 -0.0202,-0.0186 -0.0202,-0.0481 0,-0.0295 0.0202,-0.0465 0.0202,-0.0186 0.0682,-0.0186 h 0.35657 q 0.0465,0 0.0667,0.0186 0.0202,0.017 0.0202,0.0465 0,0.0294 -0.0202,0.0481 -0.0202,0.017 -0.0667,0.017 h -0.0775 z"
         id="path727" />
    </g>
    <g
       aria-label="Z"
       id="text653"
       style="font-size:3.175px;font-family:'Courier New';-inkscape-font-specification:'Courier New';stroke-width:0.264583">
      <path
         d="m 161.80715,153.83672 h -1.25419 v -0.18914 l 1.0573,-1.48363 v -0.0109 h -0.86661 v 0.38292 q 0,0.0481 -0.0186,0.0682 -0.0186,0.0202 -0.0481,0.0202 -0.0279,0 -0.0465,-0.0202 -0.0186,-0.0202 -0.0186,-0.0682 v -0.51315 h 1.12396 v 0.18449 l -1.0573,1.48518 v 0.0139 h 0.99839 v -0.45423 q 0,-0.0481 0.0171,-0.0682 0.0186,-0.0202 0.048,-0.0202 0.0295,0 0.0465,0.0202 0.0186,0.0202 0.0186,0.0682 z"
         id="path730" />
    </g>
    <g
       aria-label="-"
       id="text921"
       style="font-size:3.175px;font-family:'Courier New';-inkscape-font-specification:'Courier New';stroke-width:0.264583">
      <path
         d="m 47.406918,121.72582 v 0.18603 h -1.328601 v -0.18603 z"
         id="path923" />
    </g>
    <g
       aria-label="a"
       id="text1122"
       style="font-size:3.175px;font-family:'Courier New';-inkscape-font-specification:'Courier New';stroke-width:0.264583">
      <path
         d="m 40.426534,42.699661 v -0.187585 q -0.283703,0.238745 -0.606164,0.238745 -0.234095,0 -0.365869,-0.117822 -0.131775,-0.119373 -0.131775,-0.291455 0,-0.189136 0.173632,-0.330213 0.173633,-0.141076 0.506946,-0.141076 0.08992,0 0.195337,0.0124 0.10542,0.01085 0.227893,0.03566 v -0.21084 q 0,-0.10697 -0.09922,-0.186035 -0.09922,-0.07906 -0.297657,-0.07906 -0.151928,0 -0.42633,0.08837 -0.04961,0.0155 -0.06356,0.0155 -0.02481,0 -0.04341,-0.0186 -0.01705,-0.0186 -0.01705,-0.04651 0,-0.02635 0.0155,-0.04186 0.0217,-0.02325 0.175183,-0.06356 0.241846,-0.06511 0.365869,-0.06511 0.246497,0 0.384473,0.122473 0.137976,0.120923 0.137976,0.274402 v 0.861963 h 0.173633 q 0.04806,0 0.06821,0.0186 0.02015,0.01705 0.02015,0.04651 0,0.0279 -0.02015,0.04651 -0.02015,0.0186 -0.06821,0.0186 z m 0,-0.648022 q -0.09147,-0.02636 -0.193786,-0.03876 -0.10232,-0.0124 -0.215491,-0.0124 -0.283704,0 -0.443384,0.122473 -0.120923,0.09147 -0.120923,0.218592 0,0.117822 0.09147,0.198437 0.09302,0.08062 0.269751,0.08062 0.168981,0 0.313159,-0.06666 0.145727,-0.06821 0.299206,-0.215491 z"
         id="path1340" />
    </g>
    <g
       aria-label="b"
       id="text1126"
       style="font-size:3.175px;font-family:'Courier New';-inkscape-font-specification:'Courier New';stroke-width:0.264583">
      <path
         d="m 53.897157,41.485603 v 0.863514 q 0.235644,-0.306958 0.568957,-0.306958 0.285254,0 0.488342,0.207739 0.203089,0.206189 0.203089,0.506946 0,0.303857 -0.206189,0.514697 -0.204639,0.21084 -0.485242,0.21084 -0.341064,0 -0.568957,-0.306958 v 0.255798 h -0.305408 q -0.04651,0 -0.06666,-0.0186 -0.02015,-0.0186 -0.02015,-0.04651 0,-0.02946 0.02015,-0.04651 0.02015,-0.0186 0.06666,-0.0186 h 0.175183 v -1.683618 h -0.175183 q -0.04651,0 -0.06666,-0.0186 -0.02015,-0.0186 -0.02015,-0.04806 0,-0.02791 0.02015,-0.04651 0.02015,-0.0186 0.06666,-0.0186 z m 1.130163,1.277442 q 0,-0.246497 -0.168982,-0.417029 -0.168982,-0.172083 -0.395325,-0.172083 -0.226342,0 -0.395324,0.172083 -0.168982,0.170532 -0.168982,0.417029 0,0.246496 0.168982,0.418579 0.168982,0.170532 0.395324,0.170532 0.226343,0 0.395325,-0.170532 0.168982,-0.172083 0.168982,-0.418579 z"
         id="path1343" />
    </g>
    <g
       aria-label="c"
       id="text1130"
       style="font-size:3.175px;font-family:'Courier New';-inkscape-font-specification:'Courier New';stroke-width:0.264583">
      <path
         d="m 45.947014,49.3543 v -0.04341 q 0,-0.04806 0.0186,-0.06821 0.0186,-0.02015 0.04651,-0.02015 0.02946,0 0.04806,0.02015 0.0186,0.02015 0.0186,0.06821 v 0.294555 q -0.0016,0.04806 -0.02015,0.06821 -0.01705,0.02015 -0.04651,0.02015 -0.02636,0 -0.04496,-0.01705 -0.01705,-0.0186 -0.02015,-0.06046 -0.0093,-0.11007 -0.145728,-0.209289 -0.134875,-0.09922 -0.364319,-0.09922 -0.289904,0 -0.440283,0.181384 -0.150378,0.181385 -0.150378,0.415479 0,0.252698 0.165881,0.417029 0.165882,0.164331 0.429431,0.164331 0.151929,0 0.308509,-0.05581 0.15813,-0.05581 0.285254,-0.179834 0.03256,-0.03101 0.05736,-0.03101 0.02636,0 0.04341,0.0186 0.0186,0.01705 0.0186,0.04341 0,0.06666 -0.15658,0.168982 -0.252697,0.165881 -0.562756,0.165881 -0.314709,0 -0.517798,-0.199987 -0.201538,-0.201538 -0.201538,-0.510047 0,-0.314709 0.206189,-0.522448 0.207739,-0.20774 0.522449,-0.20774 0.299206,0 0.502295,0.178284 z"
         id="path1346" />
    </g>
    <g
       aria-label="d"
       id="text1134"
       style="font-size:3.175px;font-family:'Courier New';-inkscape-font-specification:'Courier New';stroke-width:0.264583">
      <path
         d="m 63.680391,47.884941 v 1.815393 h 0.173633 q 0.04806,0 0.06821,0.0186 0.02015,0.01705 0.02015,0.04651 0,0.02791 -0.02015,0.04651 -0.02015,0.0186 -0.06821,0.0186 H 63.548616 V 49.57166 q -0.226343,0.310058 -0.575159,0.310058 -0.176733,0 -0.339514,-0.09302 -0.16123,-0.09457 -0.255798,-0.268201 -0.09302,-0.173633 -0.09302,-0.358117 0,-0.186036 0.09302,-0.358118 0.09457,-0.173633 0.255798,-0.268201 0.162781,-0.09457 0.341065,-0.09457 0.341064,0 0.573608,0.310059 v -0.734839 h -0.173633 q -0.04806,0 -0.06821,-0.0186 -0.02015,-0.0186 -0.02015,-0.04806 0,-0.0279 0.02015,-0.04651 0.02015,-0.0186 0.06821,-0.0186 z m -0.131775,1.277442 q 0,-0.248047 -0.167432,-0.41858 -0.167431,-0.170532 -0.398425,-0.170532 -0.232544,0 -0.399975,0.170532 -0.167432,0.170533 -0.167432,0.41858 0,0.246496 0.167432,0.418579 0.167431,0.170532 0.399975,0.170532 0.230994,0 0.398425,-0.170532 0.167432,-0.172083 0.167432,-0.418579 z"
         id="path1349" />
    </g>
    <g
       aria-label="e"
       id="text1138"
       style="font-size:3.175px;font-family:'Courier New';-inkscape-font-specification:'Courier New';stroke-width:0.264583">
      <path
         d="m 86.87332,46.892142 h -1.327051 q 0.03411,0.252698 0.21084,0.407728 0.178284,0.153479 0.440283,0.153479 0.145728,0 0.305408,-0.04806 0.15968,-0.04806 0.260449,-0.127124 0.02946,-0.02325 0.05116,-0.02325 0.02481,0 0.04341,0.02015 0.0186,0.0186 0.0186,0.04496 0,0.02636 -0.0248,0.05116 -0.07441,0.07751 -0.2651,0.145728 -0.189136,0.06666 -0.389124,0.06666 -0.334863,0 -0.559655,-0.218591 -0.223243,-0.220142 -0.223243,-0.531751 0,-0.283703 0.20929,-0.486792 0.21084,-0.203088 0.520898,-0.203088 0.319361,0 0.52555,0.20929 0.206189,0.207739 0.203088,0.539501 z m -0.131775,-0.131774 q -0.03876,-0.215491 -0.204639,-0.350367 -0.164331,-0.134875 -0.392224,-0.134875 -0.227893,0 -0.392224,0.133325 -0.164331,0.133325 -0.204638,0.351917 z"
         id="path1352" />
    </g>
    <g
       aria-label="f"
       id="text1142"
       style="font-size:3.175px;font-family:'Courier New';-inkscape-font-specification:'Courier New';stroke-width:0.264583">
      <path
         d="m 80.791769,37.529574 v 1.080554 h 0.572058 q 0.04651,0 0.06666,0.0186 0.02015,0.01705 0.02015,0.04651 0,0.02791 -0.02015,0.04651 -0.02015,0.0186 -0.06666,0.0186 h -1.018542 q -0.04651,0 -0.06666,-0.0186 -0.02015,-0.0186 -0.02015,-0.04651 0,-0.02946 0.02015,-0.04651 0.02015,-0.0186 0.06666,-0.0186 h 0.314709 v -1.080554 h -0.282153 q -0.04651,0 -0.06666,-0.0186 -0.02015,-0.0186 -0.02015,-0.04806 0,-0.0279 0.02015,-0.04651 0.02015,-0.0186 0.06666,-0.0186 h 0.282153 v -0.196887 q 0,-0.164331 0.133326,-0.285254 0.133325,-0.120923 0.353466,-0.120923 0.184485,0 0.393775,0.03411 0.07906,0.0124 0.09457,0.02946 0.01705,0.01705 0.01705,0.04496 0,0.02791 -0.0186,0.04651 -0.0186,0.01705 -0.04961,0.01705 -0.0124,0 -0.04186,-0.0047 -0.234094,-0.03566 -0.395325,-0.03566 -0.170532,0 -0.263549,0.08372 -0.09147,0.08372 -0.09147,0.190686 v 0.196887 h 0.609266 q 0.04651,0 0.06666,0.0186 0.02015,0.0186 0.02015,0.04806 0,0.02791 -0.02015,0.04651 -0.02015,0.0186 -0.06666,0.0186 z"
         id="path1355" />
    </g>
    <g
       aria-label="g"
       id="text1146"
       style="font-size:3.175px;font-family:'Courier New';-inkscape-font-specification:'Courier New';stroke-width:0.264583">
      <path
         d="m 134.43614,39.497224 v -0.238745 h 0.30541 q 0.0465,0 0.0667,0.0186 0.0202,0.0186 0.0202,0.04806 0,0.0279 -0.0202,0.04651 -0.0202,0.0186 -0.0667,0.0186 h -0.17518 v 1.300696 q 0,0.130225 -0.0558,0.232544 -0.0372,0.06821 -0.12402,0.141077 -0.0868,0.07286 -0.15813,0.103869 -0.0713,0.03101 -0.19069,0.03101 h -0.36897 q -0.0465,0 -0.0667,-0.0186 -0.0202,-0.01705 -0.0202,-0.04651 0,-0.02946 0.0202,-0.04806 0.0202,-0.0186 0.0667,-0.0186 l 0.37362,0.0016 q 0.11472,0 0.20619,-0.05891 0.093,-0.05891 0.15348,-0.172083 0.0341,-0.06511 0.0341,-0.165881 v -0.390674 q -0.20928,0.286804 -0.5395,0.286804 -0.2682,0 -0.46353,-0.198437 -0.19379,-0.199988 -0.19379,-0.480591 0,-0.280603 0.19379,-0.479041 0.19533,-0.198437 0.46353,-0.198437 0.33022,0 0.5395,0.285254 z m 0,0.392224 q 0,-0.229444 -0.15812,-0.387573 -0.15658,-0.15813 -0.37518,-0.15813 -0.21859,0 -0.37517,0.15968 -0.15658,0.15813 -0.15658,0.386023 0,0.229443 0.15658,0.389123 0.15658,0.15813 0.37517,0.15813 0.2186,0 0.37518,-0.15813 0.15812,-0.15968 0.15812,-0.389123 z"
         id="path1358" />
    </g>
    <g
       aria-label="h"
       id="text1150"
       style="font-size:3.175px;font-family:'Courier New';-inkscape-font-specification:'Courier New';stroke-width:0.264583">
      <path
         d="m 124.35331,39.03376 v 0.801502 q 0.12402,-0.134876 0.23719,-0.189136 0.11472,-0.05581 0.2558,-0.05581 0.15193,0 0.25735,0.05426 0.10697,0.05271 0.17828,0.164331 0.0713,0.11007 0.0713,0.232544 v 0.807702 h 0.14572 q 0.0481,0 0.0667,0.0186 0.0202,0.01705 0.0202,0.04651 0,0.02791 -0.0202,0.04651 -0.0186,0.0186 -0.0667,0.0186 h -0.42323 q -0.0481,0 -0.0682,-0.0186 -0.0202,-0.0186 -0.0202,-0.04651 0,-0.02945 0.0202,-0.04651 0.0202,-0.0186 0.0682,-0.0186 h 0.14573 v -0.798401 q 0,-0.141076 -0.10232,-0.235644 -0.10077,-0.09457 -0.28215,-0.09457 -0.14263,0 -0.2434,0.06976 -0.0729,0.04961 -0.24029,0.234094 v 0.824756 h 0.14727 q 0.0465,0 0.0667,0.0186 0.0202,0.01705 0.0202,0.04651 0,0.02791 -0.0202,0.04651 -0.0202,0.0186 -0.0667,0.0186 h -0.42478 q -0.0465,0 -0.0667,-0.0186 -0.0202,-0.0186 -0.0202,-0.04651 0,-0.02945 0.0202,-0.04651 0.0202,-0.0186 0.0667,-0.0186 h 0.14728 v -1.683618 h -0.17518 q -0.0465,0 -0.0667,-0.0186 -0.0202,-0.0186 -0.0202,-0.04806 0,-0.0279 0.0202,-0.04651 0.0202,-0.0186 0.0667,-0.0186 z"
         id="path1361" />
    </g>
    <g
       aria-label="i"
       id="text1154"
       style="font-size:3.175px;font-family:'Courier New';-inkscape-font-specification:'Courier New';stroke-width:0.264583">
      <path
         d="m 129.25489,46.253243 v 0.336414 h -0.19223 v -0.336414 z m 0.005,0.668177 v 1.212329 h 0.5116 q 0.0481,0 0.0682,0.0186 0.0202,0.01705 0.0202,0.04651 0,0.0279 -0.0202,0.04651 -0.0202,0.0186 -0.0682,0.0186 h -1.15342 q -0.0465,0 -0.0667,-0.0186 -0.0202,-0.0186 -0.0202,-0.04651 0,-0.02946 0.0202,-0.04651 0.0202,-0.0186 0.0667,-0.0186 h 0.5116 v -1.080555 h -0.37982 q -0.0465,0 -0.0682,-0.0186 -0.0201,-0.0186 -0.0201,-0.04651 0,-0.02945 0.0201,-0.04806 0.0202,-0.0186 0.0682,-0.0186 z"
         id="path1364" />
    </g>
    <g
       aria-label="j"
       id="text1158"
       style="font-size:3.175px;font-family:'Courier New';-inkscape-font-specification:'Courier New';stroke-width:0.264583">
      <path
         d="m 128.81133,55.552232 v 0.336413 h -0.19223 v -0.336413 z m 0.008,0.799951 h -0.77359 q -0.0465,0 -0.0667,-0.0186 -0.0202,-0.0186 -0.0202,-0.04806 0,-0.0279 0.0186,-0.04651 0.0202,-0.0186 0.0682,-0.0186 h 0.90382 v 1.434021 q 0,0.165881 -0.0682,0.277502 -0.0682,0.111621 -0.20464,0.181385 -0.0946,0.04806 -0.2248,0.04806 h -0.41392 q -0.0465,0 -0.0667,-0.0186 -0.0202,-0.01705 -0.0202,-0.04651 0,-0.02946 0.0202,-0.04806 0.0202,-0.0186 0.0667,-0.0186 l 0.41082,0.0015 q 0.16589,0 0.2682,-0.10852 0.10232,-0.108521 0.10232,-0.268201 z"
         id="path1367" />
    </g>
    <g
       aria-label="k"
       id="text1162"
       style="font-size:3.175px;font-family:'Courier New';-inkscape-font-specification:'Courier New';stroke-width:0.264583">
      <path
         d="m 137.44637,53.578054 v 0.57981 h -0.30541 q -0.0465,0 -0.0667,-0.0186 -0.0202,-0.0186 -0.0202,-0.04651 0,-0.02945 0.0202,-0.04651 0.0202,-0.0186 0.0667,-0.0186 h 0.17519 v -1.683618 h -0.17519 q -0.0465,0 -0.0667,-0.0186 -0.0202,-0.0186 -0.0202,-0.04806 0,-0.0279 0.0202,-0.04651 0.0202,-0.0186 0.0667,-0.0186 h 0.30541 v 1.199927 l 0.55346,-0.465088 h -0.0667 q -0.0465,0 -0.0667,-0.0186 -0.0202,-0.0186 -0.0202,-0.04651 0,-0.02946 0.0202,-0.04806 0.0202,-0.0186 0.0667,-0.0186 h 0.41703 q 0.0481,0 0.0682,0.0186 0.0202,0.0186 0.0202,0.04806 0,0.0279 -0.0202,0.04651 -0.0202,0.0186 -0.0682,0.0186 h -0.15038 l -0.50849,0.42478 0.64337,0.655774 h 0.15038 q 0.0481,0 0.0682,0.0186 0.0202,0.01705 0.0202,0.04651 0,0.02791 -0.0202,0.04651 -0.0202,0.0186 -0.0682,0.0186 h -0.42168 q -0.0465,0 -0.0667,-0.0186 -0.0202,-0.0186 -0.0202,-0.04651 0,-0.02945 0.0202,-0.04651 0.0201,-0.0186 0.0667,-0.0186 h 0.0915 L 137.5952,53.45248 Z"
         id="path1370" />
    </g>
    <g
       aria-label="l"
       id="text1166"
       style="font-size:3.175px;font-family:'Courier New';-inkscape-font-specification:'Courier New';stroke-width:0.264583">
      <path
         d="m 143.98526,51.498421 v 1.815393 h 0.5116 q 0.0481,0 0.0682,0.0186 0.0202,0.01705 0.0202,0.04651 0,0.0279 -0.0202,0.04651 -0.0202,0.0186 -0.0682,0.0186 h -1.15342 q -0.0465,0 -0.0667,-0.0186 -0.0202,-0.0186 -0.0202,-0.04651 0,-0.02945 0.0202,-0.04651 0.0202,-0.0186 0.0667,-0.0186 h 0.5116 v -1.683618 h -0.37517 q -0.0465,0 -0.0682,-0.0186 -0.0202,-0.0186 -0.0202,-0.04806 0,-0.0279 0.0202,-0.04651 0.0202,-0.0186 0.0682,-0.0186 z"
         id="path1373" />
    </g>
    <g
       aria-label="m"
       id="text1170"
       style="font-size:3.175px;font-family:'Courier New';-inkscape-font-specification:'Courier New';stroke-width:0.264583">
      <path
         d="m 150.18978,44.547907 v 0.131775 q 0.16588,-0.178284 0.33331,-0.178284 0.10077,0 0.17673,0.05426 0.076,0.05271 0.12713,0.16123 0.0868,-0.10852 0.17518,-0.16123 0.0899,-0.05426 0.17983,-0.05426 0.14108,0 0.2248,0.09147 0.11007,0.117822 0.11007,0.257348 v 0.910022 h 0.11007 q 0.0465,0 0.0667,0.0186 0.0202,0.01705 0.0202,0.04651 0,0.0279 -0.0202,0.04651 -0.0202,0.0186 -0.0667,0.0186 h -0.2403 v -1.027844 q 0,-0.09922 -0.0605,-0.164331 -0.0605,-0.06511 -0.13953,-0.06511 -0.0713,0 -0.15037,0.05426 -0.0791,0.05271 -0.17984,0.209289 v 0.863513 h 0.10852 q 0.0465,0 0.0667,0.0186 0.0202,0.01705 0.0202,0.04651 0,0.0279 -0.0202,0.04651 -0.0202,0.0186 -0.0667,0.0186 h -0.24029 v -1.018542 q 0,-0.10387 -0.062,-0.170533 -0.0605,-0.06821 -0.13643,-0.06821 -0.0698,0 -0.13798,0.04496 -0.0946,0.06356 -0.19843,0.218591 v 0.863513 h 0.11007 q 0.0465,0 0.0667,0.0186 0.0202,0.01705 0.0202,0.04651 0,0.0279 -0.0202,0.04651 -0.0202,0.0186 -0.0667,0.0186 h -0.35037 q -0.0465,0 -0.0667,-0.0186 -0.0202,-0.0186 -0.0202,-0.04651 0,-0.02946 0.0202,-0.04651 0.0202,-0.0186 0.0667,-0.0186 h 0.11007 v -1.080554 h -0.11007 q -0.0465,0 -0.0667,-0.0186 -0.0202,-0.0186 -0.0202,-0.04806 0,-0.02791 0.0202,-0.04651 0.0202,-0.0186 0.0667,-0.0186 z"
         id="path1376" />
    </g>
    <g
       aria-label="n"
       id="text1174"
       style="font-size:3.175px;font-family:'Courier New';-inkscape-font-specification:'Courier New';stroke-width:0.264583">
      <path
         d="m 146.50747,34.563178 v 0.196887 q 0.13643,-0.137976 0.2465,-0.190686 0.11007,-0.05271 0.24805,-0.05271 0.14883,0 0.2713,0.06356 0.0868,0.04651 0.15658,0.155029 0.0713,0.10697 0.0713,0.220142 v 0.820105 h 0.11007 q 0.0465,0 0.0667,0.0186 0.0202,0.01705 0.0202,0.04651 0,0.02791 -0.0202,0.04651 -0.0202,0.0186 -0.0667,0.0186 h -0.34881 q -0.0481,0 -0.0682,-0.0186 -0.0202,-0.0186 -0.0202,-0.04651 0,-0.02946 0.0202,-0.04651 0.0202,-0.0186 0.0682,-0.0186 h 0.10852 v -0.798401 q 0,-0.137976 -0.10077,-0.232544 -0.10077,-0.09612 -0.26975,-0.09612 -0.12868,0 -0.22325,0.05271 -0.0946,0.05116 -0.26975,0.257348 v 0.817005 h 0.14728 q 0.0465,0 0.0667,0.0186 0.0202,0.01705 0.0202,0.04651 0,0.02791 -0.0202,0.04651 -0.0202,0.0186 -0.0667,0.0186 h -0.42478 q -0.0465,0 -0.0667,-0.0186 -0.0202,-0.0186 -0.0202,-0.04651 0,-0.02946 0.0202,-0.04651 0.0202,-0.0186 0.0667,-0.0186 h 0.14728 v -1.080555 h -0.11007 q -0.0465,0 -0.0667,-0.0186 -0.0202,-0.0186 -0.0202,-0.04806 0,-0.0279 0.0202,-0.04651 0.0202,-0.0186 0.0667,-0.0186 z"
         id="path1379" />
    </g>
    <g
       aria-label="o"
       id="text1178"
       style="font-size:3.175px;font-family:'Courier New';-inkscape-font-specification:'Courier New';stroke-width:0.264583">
      <path
         d="m 131.48795,29.584559 q 0,0.297656 -0.21394,0.508496 -0.21239,0.21084 -0.51315,0.21084 -0.30385,0 -0.51624,-0.21084 -0.21239,-0.21239 -0.21239,-0.508496 0,-0.297656 0.21239,-0.508496 0.21239,-0.21239 0.51624,-0.21239 0.30076,0 0.51315,0.210839 0.21394,0.21084 0.21394,0.510047 z m -0.13177,0 q 0,-0.244946 -0.17519,-0.417029 -0.17363,-0.172082 -0.42168,-0.172082 -0.24804,0 -0.42323,0.173632 -0.17363,0.172083 -0.17363,0.415479 0,0.241846 0.17363,0.415478 0.17519,0.173633 0.42323,0.173633 0.24805,0 0.42168,-0.172082 0.17519,-0.173633 0.17519,-0.417029 z"
         id="path1382" />
    </g>
    <g
       aria-label="p"
       id="text1182"
       style="font-size:3.175px;font-family:'Courier New';-inkscape-font-specification:'Courier New';stroke-width:0.264583">
      <path
         d="m 117.87275,30.801901 v 0.237195 q 0.11628,-0.141077 0.2496,-0.21239 0.13333,-0.07131 0.31471,-0.07131 0.19224,0 0.35502,0.08992 0.16278,0.08992 0.25115,0.251148 0.0899,0.15968 0.0899,0.336413 0,0.280604 -0.20154,0.480591 -0.19998,0.198438 -0.49299,0.198438 -0.34882,0 -0.56586,-0.283704 v 0.784448 h 0.31626 q 0.0465,0 0.0667,0.01705 0.0202,0.0186 0.0202,0.04806 0,0.0279 -0.0202,0.04651 -0.0202,0.0186 -0.0667,0.0186 h -0.62166 q -0.0465,0 -0.0667,-0.0186 -0.0202,-0.01705 -0.0202,-0.04651 0,-0.02946 0.0202,-0.04806 0.0202,-0.01705 0.0667,-0.01705 h 0.17518 v -1.678967 h -0.17518 q -0.0465,0 -0.0667,-0.0186 -0.0202,-0.0186 -0.0202,-0.04806 0,-0.02791 0.0202,-0.04651 0.0202,-0.0186 0.0667,-0.0186 z m 1.12862,0.630969 q 0,-0.224792 -0.16433,-0.384472 -0.16278,-0.161231 -0.39843,-0.161231 -0.23719,0 -0.40153,0.161231 -0.16433,0.16123 -0.16433,0.384472 0,0.224793 0.16433,0.386023 0.16434,0.161231 0.40153,0.161231 0.2341,0 0.39843,-0.15968 0.16433,-0.161231 0.16433,-0.387574 z"
         id="path1385" />
    </g>
    <g
       aria-label="q"
       id="text1186"
       style="font-size:3.175px;font-family:'Courier New';-inkscape-font-specification:'Courier New';stroke-width:0.264583">
      <path
         d="m 107.32115,37.351234 v -0.237195 h 0.30541 q 0.0481,0 0.0682,0.0186 0.0202,0.0186 0.0202,0.04806 0,0.02791 -0.0202,0.04651 -0.0202,0.0186 -0.0682,0.0186 h -0.17363 v 1.678967 h 0.17363 q 0.0481,0 0.0682,0.01705 0.0202,0.0186 0.0202,0.04806 0,0.02791 -0.0202,0.04651 -0.0202,0.0186 -0.0682,0.0186 h -0.62012 q -0.0465,0 -0.0667,-0.0186 -0.0202,-0.01705 -0.0202,-0.04651 0,-0.02945 0.0202,-0.04806 0.0202,-0.01705 0.0667,-0.01705 h 0.31471 v -0.784448 q -0.21549,0.283703 -0.56586,0.283703 -0.29145,0 -0.49299,-0.198437 -0.19999,-0.199988 -0.19999,-0.480591 0,-0.282153 0.19999,-0.47904 0.20154,-0.198438 0.4961,-0.198438 0.34726,0 0.56275,0.283704 z m 0,0.393774 q 0,-0.224792 -0.16433,-0.384473 -0.16433,-0.16123 -0.39997,-0.16123 -0.23565,0 -0.39998,0.16123 -0.16433,0.159681 -0.16433,0.384473 0,0.224793 0.16433,0.386023 0.16433,0.161231 0.39998,0.161231 0.23564,0 0.39997,-0.161231 0.16433,-0.16123 0.16433,-0.386023 z"
         id="path1388" />
    </g>
    <g
       aria-label="r"
       id="text1190"
       style="font-size:3.175px;font-family:'Courier New';-inkscape-font-specification:'Courier New';stroke-width:0.264583">
      <path
         d="m 109.21899,45.273558 v 0.328662 q 0.25425,-0.229443 0.37982,-0.294555 0.12713,-0.06666 0.2341,-0.06666 0.11627,0 0.21549,0.07906 0.10077,0.07751 0.10077,0.117822 0,0.02946 -0.0202,0.04961 -0.0186,0.0186 -0.048,0.0186 -0.0155,0 -0.0264,-0.0047 -0.0108,-0.0062 -0.0403,-0.03566 -0.0543,-0.05426 -0.0946,-0.07441 -0.0403,-0.02015 -0.0791,-0.02015 -0.0853,0 -0.20619,0.06821 -0.11937,0.06821 -0.41548,0.333313 v 0.713135 h 0.57671 q 0.0481,0 0.0682,0.0186 0.0202,0.01705 0.0202,0.04651 0,0.02791 -0.0202,0.04651 -0.0202,0.0186 -0.0682,0.0186 h -1.02164 q -0.0465,0 -0.0667,-0.01705 -0.0202,-0.0186 -0.0202,-0.04651 0,-0.02635 0.0186,-0.04341 0.0202,-0.0186 0.0682,-0.0186 h 0.31471 v -1.085205 h -0.2403 q -0.0465,0 -0.0667,-0.0186 -0.0201,-0.0186 -0.0201,-0.04806 0,-0.0279 0.0186,-0.04651 0.0202,-0.0186 0.0682,-0.0186 z"
         id="path1391" />
    </g>
    <g
       aria-label="s"
       id="text1194"
       style="font-size:3.175px;font-family:'Courier New';-inkscape-font-specification:'Courier New';stroke-width:0.264583">
      <path
         d="m 115.34271,53.855307 q 0,-0.04496 0.0186,-0.06511 0.0186,-0.02015 0.0465,-0.02015 0.0295,0 0.0481,0.02015 0.0186,0.02015 0.0186,0.06821 v 0.223242 q 0,0.04651 -0.0186,0.06666 -0.0186,0.02015 -0.0481,0.02015 -0.0264,0 -0.045,-0.01705 -0.017,-0.01705 -0.0202,-0.05581 -0.009,-0.09302 -0.0961,-0.153479 -0.12712,-0.08682 -0.33641,-0.08682 -0.2186,0 -0.33952,0.08837 -0.0915,0.06666 -0.0915,0.148828 0,0.09302 0.10853,0.155029 0.0744,0.04341 0.28215,0.06666 0.2713,0.02945 0.37672,0.06666 0.15038,0.05426 0.22324,0.150379 0.0744,0.09612 0.0744,0.207739 0,0.165881 -0.15968,0.296106 -0.15968,0.128674 -0.46819,0.128674 -0.30851,0 -0.5054,-0.156579 0,0.05271 -0.006,0.06821 -0.006,0.0155 -0.0233,0.02636 -0.0155,0.01085 -0.0357,0.01085 -0.0279,0 -0.0465,-0.02015 -0.0186,-0.02015 -0.0186,-0.06666 v -0.2682 q 0,-0.04651 0.017,-0.06666 0.0186,-0.02015 0.0481,-0.02015 0.0279,0 0.0465,0.02015 0.0202,0.0186 0.0202,0.05116 0,0.07131 0.0357,0.119372 0.0543,0.07441 0.17208,0.124024 0.11937,0.04806 0.29146,0.04806 0.25424,0 0.37827,-0.09457 0.12402,-0.09457 0.12402,-0.199988 0,-0.120923 -0.12557,-0.193787 -0.12713,-0.07286 -0.37052,-0.09767 -0.24185,-0.02481 -0.34727,-0.06511 -0.10542,-0.04031 -0.16433,-0.120923 -0.0589,-0.08062 -0.0589,-0.173633 0,-0.167432 0.16433,-0.2651 0.16433,-0.09922 0.39222,-0.09922 0.26976,0 0.43874,0.131775 z"
         id="path1394" />
    </g>
    <g
       aria-label="t"
       id="text1198"
       style="font-size:3.175px;font-family:'Courier New';-inkscape-font-specification:'Courier New';stroke-width:0.264583">
      <path
         d="m 115.6944,59.986113 h 0.70693 q 0.0465,0 0.0667,0.0186 0.0202,0.0186 0.0202,0.04806 0,0.0279 -0.0202,0.04651 -0.0202,0.0186 -0.0667,0.0186 h -0.70693 v 0.866614 q 0,0.113171 0.0899,0.189135 0.0915,0.07597 0.26665,0.07597 0.13177,0 0.28525,-0.03876 0.15348,-0.04031 0.23875,-0.08992 0.031,-0.02015 0.0512,-0.02015 0.0248,0 0.0434,0.02015 0.0186,0.0186 0.0186,0.04496 0,0.02325 -0.0202,0.04341 -0.0496,0.05116 -0.24184,0.111621 -0.19069,0.05891 -0.36587,0.05891 -0.22789,0 -0.36277,-0.10697 -0.13487,-0.10697 -0.13487,-0.288354 v -0.866614 h -0.2403 q -0.0465,0 -0.0667,-0.0186 -0.0202,-0.0186 -0.0202,-0.04806 0,-0.02791 0.0202,-0.04651 0.0202,-0.0186 0.0667,-0.0186 h 0.2403 V 59.60164 q 0,-0.04651 0.0186,-0.06666 0.0186,-0.02015 0.0465,-0.02015 0.0294,0 0.0481,0.02015 0.0186,0.02015 0.0186,0.06666 z"
         id="path1397" />
    </g>
    <g
       aria-label="u"
       id="text1202"
       style="font-size:3.175px;font-family:'Courier New';-inkscape-font-specification:'Courier New';stroke-width:0.264583">
      <path
         d="m 102.898,58.235409 v -0.190686 q -0.26665,0.241845 -0.57671,0.241845 -0.19069,0 -0.28991,-0.103869 -0.12867,-0.136426 -0.12867,-0.31781 V 57.02463 h -0.17518 q -0.0465,0 -0.0667,-0.0186 -0.0202,-0.0186 -0.0202,-0.04806 0,-0.0279 0.0202,-0.04651 0.0202,-0.0186 0.0667,-0.0186 h 0.3054 v 0.972034 q 0,0.127124 0.0806,0.209289 0.0806,0.08217 0.20154,0.08217 0.31781,0 0.58291,-0.291455 V 57.02463 h -0.2403 q -0.0465,0 -0.0667,-0.0186 -0.0202,-0.0186 -0.0202,-0.04806 0,-0.0279 0.0202,-0.04651 0.0201,-0.0186 0.0667,-0.0186 h 0.37052 v 1.212329 h 0.11007 q 0.0465,0 0.0667,0.0186 0.0202,0.01705 0.0202,0.04651 0,0.02791 -0.0202,0.04651 -0.0202,0.0186 -0.0667,0.0186 z"
         id="path1400" />
    </g>
    <g
       aria-label="v"
       id="text1206"
       style="font-size:3.175px;font-family:'Courier New';-inkscape-font-specification:'Courier New';stroke-width:0.264583">
      <path
         d="M 93.119458,59.559612 H 92.899316 L 92.364465,58.348833 H 92.23114 q -0.04651,0 -0.06666,-0.0186 -0.02015,-0.0186 -0.02015,-0.04806 0,-0.0279 0.02015,-0.04651 0.02015,-0.0186 0.06666,-0.0186 h 0.488342 q 0.04651,0 0.06666,0.0186 0.02015,0.0186 0.02015,0.04806 0,0.0279 -0.02015,0.04651 -0.02015,0.0186 -0.06666,0.0186 h -0.21549 l 0.47749,1.080555 h 0.05736 l 0.468188,-1.080555 H 93.28999 q -0.04651,0 -0.06666,-0.0186 -0.02015,-0.0186 -0.02015,-0.04806 0,-0.0279 0.02015,-0.04651 0.02015,-0.0186 0.06666,-0.0186 h 0.489893 q 0.04806,0 0.06666,0.0186 0.02015,0.0186 0.02015,0.04806 0,0.0279 -0.02015,0.04651 -0.0186,0.0186 -0.06666,0.0186 h -0.131775 z"
         id="path1403" />
    </g>
    <g
       aria-label="w"
       id="text1210"
       style="font-size:3.175px;font-family:'Courier New';-inkscape-font-specification:'Courier New';stroke-width:0.264583">
      <path
         d="m 85.364264,58.814751 -0.161231,0.0016 -0.286804,-0.837158 -0.285254,0.837158 -0.16123,-0.0016 -0.269751,-1.210779 h -0.06356 q -0.04651,0 -0.06666,-0.0186 -0.02015,-0.0186 -0.02015,-0.04806 0,-0.0279 0.02015,-0.04651 0.02015,-0.0186 0.06666,-0.0186 h 0.358118 q 0.04651,0 0.06666,0.0186 0.02015,0.0186 0.02015,0.04806 0,0.0279 -0.02015,0.04651 -0.02015,0.0186 -0.06666,0.0186 h -0.165882 l 0.230994,1.032495 0.277502,-0.824756 h 0.15503 l 0.285253,0.824756 0.221692,-1.032495 h -0.164331 q -0.04651,0 -0.06821,-0.0186 -0.02015,-0.0186 -0.02015,-0.04806 0,-0.0279 0.02015,-0.04651 0.02015,-0.0186 0.06821,-0.0186 h 0.356568 q 0.04806,0 0.06821,0.0186 0.02015,0.0186 0.02015,0.04806 0,0.0279 -0.02015,0.04651 -0.02015,0.0186 -0.06821,0.0186 h -0.06201 z"
         id="path1406" />
    </g>
    <g
       aria-label="x"
       id="text1214"
       style="font-size:3.175px;font-family:'Courier New';-inkscape-font-specification:'Courier New';stroke-width:0.264583">
      <path
         d="m 76.951488,61.782104 0.596863,0.572058 q 0.05891,0 0.07441,0.0062 0.0155,0.0047 0.02635,0.0217 0.0124,0.01705 0.0124,0.03721 0,0.0279 -0.02015,0.04651 -0.02015,0.0186 -0.06821,0.0186 h -0.418579 q -0.04806,0 -0.06821,-0.0186 -0.02015,-0.0186 -0.02015,-0.04651 0,-0.02945 0.02015,-0.04651 0.02015,-0.0186 0.06821,-0.0186 h 0.215491 l -0.506946,-0.485242 -0.503845,0.485242 h 0.217041 q 0.04651,0 0.06666,0.0186 0.02015,0.01705 0.02015,0.04651 0,0.0279 -0.02015,0.04651 -0.02015,0.0186 -0.06666,0.0186 h -0.42323 q -0.04651,0 -0.06666,-0.0186 -0.02015,-0.0186 -0.02015,-0.04651 0,-0.02015 0.01085,-0.03721 0.0124,-0.01705 0.02635,-0.0217 0.0155,-0.0062 0.07442,-0.0062 l 0.596862,-0.572058 -0.5302,-0.508496 q -0.05581,0 -0.07131,-0.0062 -0.01395,-0.0062 -0.02636,-0.02325 -0.01085,-0.01705 -0.01085,-0.03721 0,-0.0279 0.02015,-0.04651 0.02015,-0.0186 0.06821,-0.0186 h 0.355017 q 0.04806,0 0.06666,0.0186 0.02015,0.0186 0.02015,0.04806 0,0.02791 -0.02015,0.04651 -0.0186,0.0186 -0.06666,0.0186 h -0.155029 l 0.438733,0.42323 0.441834,-0.42323 h -0.15503 q -0.04651,0 -0.06821,-0.0186 -0.02015,-0.0186 -0.02015,-0.04806 0,-0.0279 0.02015,-0.04651 0.02015,-0.0186 0.06821,-0.0186 h 0.355017 q 0.04651,0 0.06666,0.0186 0.02015,0.0186 0.02015,0.04806 0,0.0186 -0.0124,0.03566 -0.01085,0.01705 -0.02636,0.02325 -0.01395,0.0062 -0.06976,0.0062 z"
         id="path1409" />
    </g>
    <g
       aria-label="y"
       id="text1218"
       style="font-size:3.175px;font-family:'Courier New';-inkscape-font-specification:'Courier New';stroke-width:0.264583">
      <path
         d="M 78.719734,68.60144 78.11512,67.390662 h -0.03876 q -0.04651,0 -0.06666,-0.0186 -0.02015,-0.0186 -0.02015,-0.04651 0,-0.02015 0.0093,-0.03566 0.01085,-0.01705 0.02636,-0.02326 0.01705,-0.0078 0.05116,-0.0078 h 0.356567 q 0.04651,0 0.06666,0.0186 0.02015,0.0186 0.02015,0.04806 0,0.02791 -0.02015,0.04651 -0.02015,0.0186 -0.06666,0.0186 h -0.175183 l 0.53175,1.068151 0.523999,-1.068151 h -0.175183 q -0.04651,0 -0.06666,-0.0186 -0.02015,-0.0186 -0.02015,-0.04806 0,-0.02791 0.02015,-0.04651 0.02015,-0.0186 0.06666,-0.0186 h 0.355017 q 0.04806,0 0.06821,0.0186 0.02015,0.0186 0.02015,0.04806 0,0.02015 -0.0124,0.03721 -0.0124,0.01705 -0.02791,0.02325 -0.0155,0.0047 -0.08682,0.0047 l -0.824756,1.678967 h 0.203089 q 0.04651,0 0.06666,0.01705 0.02015,0.0186 0.02015,0.04806 0,0.0279 -0.02015,0.04651 -0.02015,0.0186 -0.06666,0.0186 h -0.750342 q -0.04651,0 -0.06666,-0.0186 -0.02015,-0.01705 -0.02015,-0.04651 0,-0.02945 0.02015,-0.04806 0.02015,-0.01705 0.06666,-0.01705 h 0.407727 z"
         id="path1412" />
    </g>
    <g
       aria-label="z"
       id="text1222"
       style="font-size:3.175px;font-family:'Courier New';-inkscape-font-specification:'Courier New';stroke-width:0.264583">
      <path
         d="m 78.843478,47.194838 v 0.116272 l -0.975134,1.096057 h 0.880567 v -0.179834 q 0,-0.04651 0.01705,-0.06666 0.0186,-0.02015 0.04806,-0.02015 0.02945,0 0.04806,0.02015 0.0186,0.02015 0.0186,0.06666 l -0.0015,0.310059 H 77.68851 V 48.42112 l 0.970484,-1.094507 h -0.809253 v 0.176733 q 0,0.04651 -0.0186,0.06666 -0.0186,0.02015 -0.04651,0.02015 -0.02945,0 -0.04806,-0.02015 -0.0186,-0.02015 -0.0186,-0.06666 v -0.308508 z"
         id="path1415" />
    </g>
    <g
       aria-label=" "
       id="text1226"
       style="font-size:3.175px;font-family:'Courier New';-inkscape-font-specification:'Courier New';stroke-width:0.264583" />
  </g>
</svg>
